# xmcd
#
# Track frame offsets: 
#        150
#        11724
#        19038
#        29200
#        38002
#
# Disc length: 697 seconds
#
# Revision: 1
# Processed by: cddbd v1.5.2PL0 Copyright (c) Steve Scherf et al.
# Submitted via: ExactAudioCopy v1.3
#
DISCID=3702b705
DTITLE=Smegma - Nachspielzeit (EP) (MCD)
DYEAR=2000
DGENRE=Oi! Punk
TTITLE0=Traitor (Oxblood)
TTITLE1=It's My Life (Madball)
TTITLE2=Vollmilch (Die Ärzte)
TTITLE3=Göbel und Gesocks (Beck's Pistols)
TTITLE4=Wir feiern heut' 'ne Paadie (Mike Krüger)
EXTD=
EXTT0=
EXTT1=
EXTT2=
EXTT3=
EXTT4=
PLAYORDER=
